<?xml version="1.0" encoding="UTF-8" standalone="no"?>
<!DOCTYPE svg PUBLIC "-//W3C//DTD SVG 1.1//EN"
 "http://www.w3.org/Graphics/SVG/1.1/DTD/svg11.dtd">
<!-- Generated by graphviz version 2.40.1 (20161225.0304)
 -->
<!-- Title: %3 Pages: 1 -->
<svg width="187pt" height="305pt"
 viewBox="0.00 0.00 187.48 305.00" xmlns="http://www.w3.org/2000/svg" xmlns:xlink="http://www.w3.org/1999/xlink">
<g id="graph0" class="graph" transform="scale(1 1) rotate(0) translate(4 301)">
<title>%3</title>
<polygon fill="#ffffff" stroke="transparent" points="-4,4 -4,-301 183.4841,-301 183.4841,4 -4,4"/>
<!-- A -->
<g id="node1" class="node">
<title>A</title>
<ellipse fill="none" stroke="#000000" cx="64.4841" cy="-279" rx="27" ry="18"/>
<text text-anchor="middle" x="64.4841" y="-275.3" font-family="Times,serif" font-size="14.00" fill="#000000">A</text>
</g>
<!-- B -->
<g id="node2" class="node">
<title>B</title>
<ellipse fill="none" stroke="#000000" cx="64.4841" cy="-192" rx="27" ry="18"/>
<text text-anchor="middle" x="64.4841" y="-188.3" font-family="Times,serif" font-size="14.00" fill="#000000">B</text>
</g>
<!-- A&#45;&#45;B -->
<g id="edge1" class="edge">
<title>A&#45;&#45;B</title>
<path fill="none" stroke="#000000" d="M64.4841,-260.9735C64.4841,-246.0422 64.4841,-224.9283 64.4841,-210.0034"/>
<text text-anchor="middle" x="71.4841" y="-231.8" font-family="Times,serif" font-size="14.00" fill="#000000">12</text>
</g>
<!-- C -->
<g id="node3" class="node">
<title>C</title>
<ellipse fill="none" stroke="#000000" cx="89.4841" cy="-105" rx="27" ry="18"/>
<text text-anchor="middle" x="89.4841" y="-101.3" font-family="Times,serif" font-size="14.00" fill="#000000">C</text>
</g>
<!-- A&#45;&#45;C -->
<g id="edge2" class="edge">
<title>A&#45;&#45;C</title>
<path fill="none" stroke="#000000" d="M75.9333,-262.6168C84.5862,-249.1784 95.7543,-229.2906 100.4841,-210 107.8605,-179.9152 100.7039,-143.7921 94.9877,-122.7143"/>
<text text-anchor="middle" x="106.9841" y="-188.3" font-family="Times,serif" font-size="14.00" fill="#000000">5</text>
</g>
<!-- B&#45;&#45;C -->
<g id="edge3" class="edge">
<title>B&#45;&#45;C</title>
<path fill="none" stroke="#000000" d="M63.4314,-173.676C63.389,-163.7885 64.1956,-151.495 67.4841,-141 69.6304,-134.1502 73.3575,-127.2692 77.1405,-121.3846"/>
<text text-anchor="middle" x="70.9841" y="-144.8" font-family="Times,serif" font-size="14.00" fill="#000000">6</text>
</g>
<!-- B&#45;&#45;C -->
<g id="edge4" class="edge">
<title>B&#45;&#45;C</title>
<path fill="none" stroke="#000000" d="M69.6641,-173.9735C73.9833,-158.9427 80.1029,-137.6465 84.3963,-122.7057"/>
<text text-anchor="middle" x="80.9841" y="-144.8" font-family="Times,serif" font-size="14.00" fill="#000000">6</text>
</g>
<!-- D -->
<g id="node4" class="node">
<title>D</title>
<ellipse fill="none" stroke="#000000" cx="31.4841" cy="-18" rx="27" ry="18"/>
<text text-anchor="middle" x="31.4841" y="-14.3" font-family="Times,serif" font-size="14.00" fill="#000000">D</text>
</g>
<!-- B&#45;&#45;D -->
<g id="edge5" class="edge">
<title>B&#45;&#45;D</title>
<path fill="none" stroke="#000000" d="M44.3479,-179.8484C35.2516,-173.5978 24.9057,-165.3313 17.4841,-156 7.4557,-143.391 5.8947,-138.7456 2.4841,-123 -.9031,-107.3626 -.6779,-102.6844 2.4841,-87 6.2334,-68.4027 15.1386,-48.5752 22.0993,-34.9697"/>
<text text-anchor="middle" x="5.9841" y="-101.3" font-family="Times,serif" font-size="14.00" fill="#000000">3</text>
</g>
<!-- B&#45;&#45;D -->
<g id="edge6" class="edge">
<title>B&#45;&#45;D</title>
<path fill="none" stroke="#000000" d="M59.2635,-174.2584C55.3292,-160.3975 50.0247,-140.5985 46.4841,-123 40.4187,-92.8523 35.8835,-57.3549 33.4632,-36.317"/>
<text text-anchor="middle" x="49.9841" y="-101.3" font-family="Times,serif" font-size="14.00" fill="#000000">3</text>
</g>
<!-- E -->
<g id="node5" class="node">
<title>E</title>
<ellipse fill="none" stroke="#000000" cx="152.4841" cy="-18" rx="27" ry="18"/>
<text text-anchor="middle" x="152.4841" y="-14.3" font-family="Times,serif" font-size="14.00" fill="#000000">E</text>
</g>
<!-- B&#45;&#45;E -->
<g id="edge7" class="edge">
<title>B&#45;&#45;E</title>
<path fill="none" stroke="#000000" d="M81.1409,-177.4624C94.9786,-164.5014 114.1681,-144.3276 125.4841,-123 140.4813,-94.7345 147.4668,-57.7063 150.4677,-36.0179"/>
<text text-anchor="middle" x="141.9841" y="-101.3" font-family="Times,serif" font-size="14.00" fill="#000000">7</text>
</g>
<!-- C&#45;&#45;D -->
<g id="edge8" class="edge">
<title>C&#45;&#45;D</title>
<path fill="none" stroke="#000000" d="M78.3011,-88.2255C68.0306,-72.8198 52.8924,-50.1124 42.6328,-34.723"/>
<text text-anchor="middle" x="66.9841" y="-57.8" font-family="Times,serif" font-size="14.00" fill="#000000">4</text>
</g>
<!-- C&#45;&#45;E -->
<g id="edge9" class="edge">
<title>C&#45;&#45;E</title>
<path fill="none" stroke="#000000" d="M101.3339,-88.636C112.5973,-73.0817 129.4416,-49.8206 140.6874,-34.2907"/>
<text text-anchor="middle" x="127.9841" y="-57.8" font-family="Times,serif" font-size="14.00" fill="#000000">6</text>
</g>
</g>
</svg>
