<?xml version="1.0" encoding="UTF-8" standalone="no"?>
<!DOCTYPE svg PUBLIC "-//W3C//DTD SVG 1.1//EN"
 "http://www.w3.org/Graphics/SVG/1.1/DTD/svg11.dtd">
<!-- Generated by graphviz version 2.40.1 (20161225.0304)
 -->
<!-- Title: %3 Pages: 1 -->
<svg width="307pt" height="305pt"
 viewBox="0.00 0.00 307.00 305.00" xmlns="http://www.w3.org/2000/svg" xmlns:xlink="http://www.w3.org/1999/xlink">
<g id="graph0" class="graph" transform="scale(1 1) rotate(0) translate(4 301)">
<title>%3</title>
<polygon fill="#ffffff" stroke="transparent" points="-4,4 -4,-301 303,-301 303,4 -4,4"/>
<!-- A -->
<g id="node1" class="node">
<title>A</title>
<ellipse fill="none" stroke="#000000" cx="27" cy="-279" rx="27" ry="18"/>
<text text-anchor="middle" x="27" y="-275.3" font-family="Times,serif" font-size="14.00" fill="#000000">A</text>
</g>
<!-- B -->
<g id="node2" class="node">
<title>B</title>
<ellipse fill="none" stroke="#000000" cx="27" cy="-192" rx="27" ry="18"/>
<text text-anchor="middle" x="27" y="-188.3" font-family="Times,serif" font-size="14.00" fill="#000000">B</text>
</g>
<!-- A&#45;&#45;B -->
<g id="edge1" class="edge">
<title>A&#45;&#45;B</title>
<path fill="none" stroke="#000000" d="M27,-260.9735C27,-246.0422 27,-224.9283 27,-210.0034"/>
<text text-anchor="middle" x="34" y="-231.8" font-family="Times,serif" font-size="14.00" fill="#000000">17</text>
</g>
<!-- C -->
<g id="node3" class="node">
<title>C</title>
<ellipse fill="none" stroke="#000000" cx="99" cy="-192" rx="27" ry="18"/>
<text text-anchor="middle" x="99" y="-188.3" font-family="Times,serif" font-size="14.00" fill="#000000">C</text>
</g>
<!-- A&#45;&#45;C -->
<g id="edge2" class="edge">
<title>A&#45;&#45;C</title>
<path fill="none" stroke="#000000" d="M40.2059,-263.0429C53.197,-247.3453 72.9157,-223.5185 85.8778,-207.856"/>
<text text-anchor="middle" x="71.5" y="-231.8" font-family="Times,serif" font-size="14.00" fill="#000000">5</text>
</g>
<!-- E -->
<g id="node5" class="node">
<title>E</title>
<ellipse fill="none" stroke="#000000" cx="119" cy="-18" rx="27" ry="18"/>
<text text-anchor="middle" x="119" y="-14.3" font-family="Times,serif" font-size="14.00" fill="#000000">E</text>
</g>
<!-- A&#45;&#45;E -->
<g id="edge3" class="edge">
<title>A&#45;&#45;E</title>
<path fill="none" stroke="#000000" d="M51.5522,-271.2479C77.5954,-261.555 117.3625,-242.1983 135,-210 166.416,-152.6483 140.5179,-70.919 126.5223,-35.4922"/>
<text text-anchor="middle" x="153.5" y="-144.8" font-family="Times,serif" font-size="14.00" fill="#000000">7</text>
</g>
<!-- D -->
<g id="node4" class="node">
<title>D</title>
<ellipse fill="none" stroke="#000000" cx="56" cy="-105" rx="27" ry="18"/>
<text text-anchor="middle" x="56" y="-101.3" font-family="Times,serif" font-size="14.00" fill="#000000">D</text>
</g>
<!-- C&#45;&#45;D -->
<g id="edge4" class="edge">
<title>C&#45;&#45;D</title>
<path fill="none" stroke="#000000" d="M90.5046,-174.8116C82.9661,-159.5593 72.0109,-137.3942 64.4778,-122.1527"/>
<text text-anchor="middle" x="84.5" y="-144.8" font-family="Times,serif" font-size="14.00" fill="#000000">3</text>
</g>
<!-- C&#45;&#45;E -->
<g id="edge5" class="edge">
<title>C&#45;&#45;E</title>
<path fill="none" stroke="#000000" d="M101.065,-174.0343C104.8975,-140.6918 113.0697,-69.5937 116.9162,-36.1286"/>
<text text-anchor="middle" x="114.5" y="-101.3" font-family="Times,serif" font-size="14.00" fill="#000000">6</text>
</g>
<!-- D&#45;&#45;E -->
<g id="edge6" class="edge">
<title>D&#45;&#45;E</title>
<path fill="none" stroke="#000000" d="M67.8498,-88.636C79.1132,-73.0817 95.9575,-49.8206 107.2033,-34.2907"/>
<text text-anchor="middle" x="95.5" y="-57.8" font-family="Times,serif" font-size="14.00" fill="#000000">9</text>
</g>
<!-- F -->
<g id="node6" class="node">
<title>F</title>
<ellipse fill="none" stroke="#000000" cx="272" cy="-279" rx="27" ry="18"/>
<text text-anchor="middle" x="272" y="-275.3" font-family="Times,serif" font-size="14.00" fill="#000000">F</text>
</g>
<!-- G -->
<g id="node7" class="node">
<title>G</title>
<ellipse fill="none" stroke="#000000" cx="209" cy="-192" rx="27" ry="18"/>
<text text-anchor="middle" x="209" y="-188.3" font-family="Times,serif" font-size="14.00" fill="#000000">G</text>
</g>
<!-- F&#45;&#45;G -->
<g id="edge7" class="edge">
<title>F&#45;&#45;G</title>
<path fill="none" stroke="#000000" d="M260.1502,-262.636C248.8868,-247.0817 232.0425,-223.8206 220.7967,-208.2907"/>
<text text-anchor="middle" x="247.5" y="-231.8" font-family="Times,serif" font-size="14.00" fill="#000000">2</text>
</g>
<!-- H -->
<g id="node8" class="node">
<title>H</title>
<ellipse fill="none" stroke="#000000" cx="272" cy="-105" rx="27" ry="18"/>
<text text-anchor="middle" x="272" y="-101.3" font-family="Times,serif" font-size="14.00" fill="#000000">H</text>
</g>
<!-- F&#45;&#45;H -->
<g id="edge8" class="edge">
<title>F&#45;&#45;H</title>
<path fill="none" stroke="#000000" d="M272,-260.7078C272,-227.2024 272,-156.3695 272,-123.0471"/>
<text text-anchor="middle" x="275.5" y="-188.3" font-family="Times,serif" font-size="14.00" fill="#000000">9</text>
</g>
<!-- G&#45;&#45;H -->
<g id="edge9" class="edge">
<title>G&#45;&#45;H</title>
<path fill="none" stroke="#000000" d="M220.8498,-175.636C232.1132,-160.0817 248.9575,-136.8206 260.2033,-121.2907"/>
<text text-anchor="middle" x="247.5" y="-144.8" font-family="Times,serif" font-size="14.00" fill="#000000">5</text>
</g>
</g>
</svg>
