<?xml version="1.0" encoding="UTF-8" standalone="no"?>
<!DOCTYPE svg PUBLIC "-//W3C//DTD SVG 1.1//EN"
 "http://www.w3.org/Graphics/SVG/1.1/DTD/svg11.dtd">
<!-- Generated by graphviz version 2.40.1 (20161225.0304)
 -->
<!-- Title: %3 Pages: 1 -->
<svg width="206pt" height="392pt"
 viewBox="0.00 0.00 206.00 392.00" xmlns="http://www.w3.org/2000/svg" xmlns:xlink="http://www.w3.org/1999/xlink">
<g id="graph0" class="graph" transform="scale(1 1) rotate(0) translate(4 388)">
<title>%3</title>
<polygon fill="#ffffff" stroke="transparent" points="-4,4 -4,-388 202,-388 202,4 -4,4"/>
<!-- A -->
<g id="node1" class="node">
<title>A</title>
<ellipse fill="none" stroke="#000000" cx="171" cy="-18" rx="27" ry="18"/>
<text text-anchor="middle" x="171" y="-14.3" font-family="Times,serif" font-size="14.00" fill="#000000">A</text>
</g>
<!-- B -->
<g id="node2" class="node">
<title>B</title>
<ellipse fill="none" stroke="#000000" cx="99" cy="-192" rx="27" ry="18"/>
<text text-anchor="middle" x="99" y="-188.3" font-family="Times,serif" font-size="14.00" fill="#000000">B</text>
</g>
<!-- B&#45;&gt;A -->
<g id="edge1" class="edge">
<title>B&#45;&gt;A</title>
<path fill="none" stroke="#000000" d="M102.323,-174.0029C106.6351,-152.6531 115.161,-116.2686 128,-87 134.8183,-71.4565 144.7188,-55.291 153.3015,-42.5175"/>
<polygon fill="#000000" stroke="#000000" points="156.1942,-44.4878 158.9787,-34.2654 150.4272,-40.5202 156.1942,-44.4878"/>
<text text-anchor="middle" x="131.5" y="-101.3" font-family="Times,serif" font-size="14.00" fill="#000000">6</text>
</g>
<!-- C -->
<g id="node3" class="node">
<title>C</title>
<ellipse fill="none" stroke="#000000" cx="51" cy="-279" rx="27" ry="18"/>
<text text-anchor="middle" x="51" y="-275.3" font-family="Times,serif" font-size="14.00" fill="#000000">C</text>
</g>
<!-- C&#45;&gt;B -->
<g id="edge2" class="edge">
<title>C&#45;&gt;B</title>
<path fill="none" stroke="#000000" d="M60.4833,-261.8116C67.3862,-249.3 76.8557,-232.1366 84.6777,-217.9592"/>
<polygon fill="#000000" stroke="#000000" points="87.7701,-219.5993 89.5364,-209.1527 81.6411,-216.2177 87.7701,-219.5993"/>
<text text-anchor="middle" x="85" y="-231.8" font-family="Times,serif" font-size="14.00" fill="#000000">12</text>
</g>
<!-- H -->
<g id="node8" class="node">
<title>H</title>
<ellipse fill="none" stroke="#000000" cx="27" cy="-192" rx="27" ry="18"/>
<text text-anchor="middle" x="27" y="-188.3" font-family="Times,serif" font-size="14.00" fill="#000000">H</text>
</g>
<!-- C&#45;&gt;H -->
<g id="edge3" class="edge">
<title>C&#45;&gt;H</title>
<path fill="none" stroke="#000000" d="M44.1755,-261.5762C42.0278,-255.7271 39.7598,-249.1317 38,-243 35.8699,-235.5779 33.9386,-227.4434 32.31,-219.8941"/>
<polygon fill="#000000" stroke="#000000" points="35.7346,-219.1708 30.2864,-210.0841 28.8789,-220.585 35.7346,-219.1708"/>
<text text-anchor="middle" x="45" y="-231.8" font-family="Times,serif" font-size="14.00" fill="#000000">10</text>
</g>
<!-- D -->
<g id="node4" class="node">
<title>D</title>
<ellipse fill="none" stroke="#000000" cx="171" cy="-105" rx="27" ry="18"/>
<text text-anchor="middle" x="171" y="-101.3" font-family="Times,serif" font-size="14.00" fill="#000000">D</text>
</g>
<!-- D&#45;&gt;A -->
<g id="edge4" class="edge">
<title>D&#45;&gt;A</title>
<path fill="none" stroke="#000000" d="M171,-86.9735C171,-75.1918 171,-59.5607 171,-46.1581"/>
<polygon fill="#000000" stroke="#000000" points="174.5001,-46.0033 171,-36.0034 167.5001,-46.0034 174.5001,-46.0033"/>
<text text-anchor="middle" x="174.5" y="-57.8" font-family="Times,serif" font-size="14.00" fill="#000000">9</text>
</g>
<!-- E -->
<g id="node5" class="node">
<title>E</title>
<ellipse fill="none" stroke="#000000" cx="171" cy="-192" rx="27" ry="18"/>
<text text-anchor="middle" x="171" y="-188.3" font-family="Times,serif" font-size="14.00" fill="#000000">E</text>
</g>
<!-- E&#45;&gt;D -->
<g id="edge5" class="edge">
<title>E&#45;&gt;D</title>
<path fill="none" stroke="#000000" d="M171,-173.9735C171,-162.1918 171,-146.5607 171,-133.1581"/>
<polygon fill="#000000" stroke="#000000" points="174.5001,-133.0033 171,-123.0034 167.5001,-133.0034 174.5001,-133.0033"/>
<text text-anchor="middle" x="178" y="-144.8" font-family="Times,serif" font-size="14.00" fill="#000000">10</text>
</g>
<!-- F -->
<g id="node6" class="node">
<title>F</title>
<ellipse fill="none" stroke="#000000" cx="123" cy="-279" rx="27" ry="18"/>
<text text-anchor="middle" x="123" y="-275.3" font-family="Times,serif" font-size="14.00" fill="#000000">F</text>
</g>
<!-- F&#45;&gt;B -->
<g id="edge6" class="edge">
<title>F&#45;&gt;B</title>
<path fill="none" stroke="#000000" d="M118.0272,-260.9735C114.723,-248.9958 110.3213,-233.0396 106.5838,-219.4912"/>
<polygon fill="#000000" stroke="#000000" points="109.9177,-218.4148 103.8843,-209.7057 103.1697,-220.2764 109.9177,-218.4148"/>
<text text-anchor="middle" x="116.5" y="-231.8" font-family="Times,serif" font-size="14.00" fill="#000000">7</text>
</g>
<!-- F&#45;&gt;E -->
<g id="edge7" class="edge">
<title>F&#45;&gt;E</title>
<path fill="none" stroke="#000000" d="M132.4833,-261.8116C139.3862,-249.3 148.8557,-232.1366 156.6777,-217.9592"/>
<polygon fill="#000000" stroke="#000000" points="159.7701,-219.5993 161.5364,-209.1527 153.6411,-216.2177 159.7701,-219.5993"/>
<text text-anchor="middle" x="157" y="-231.8" font-family="Times,serif" font-size="14.00" fill="#000000">10</text>
</g>
<!-- G -->
<g id="node7" class="node">
<title>G</title>
<ellipse fill="none" stroke="#000000" cx="123" cy="-366" rx="27" ry="18"/>
<text text-anchor="middle" x="123" y="-362.3" font-family="Times,serif" font-size="14.00" fill="#000000">G</text>
</g>
<!-- G&#45;&gt;C -->
<g id="edge8" class="edge">
<title>G&#45;&gt;C</title>
<path fill="none" stroke="#000000" d="M109.7941,-350.0429C98.8328,-336.798 83.0821,-317.7659 70.6416,-302.7336"/>
<polygon fill="#000000" stroke="#000000" points="73.1943,-300.3284 64.1222,-294.856 67.8015,-304.7914 73.1943,-300.3284"/>
<text text-anchor="middle" x="95.5" y="-318.8" font-family="Times,serif" font-size="14.00" fill="#000000">6</text>
</g>
<!-- G&#45;&gt;E -->
<g id="edge9" class="edge">
<title>G&#45;&gt;E</title>
<path fill="none" stroke="#000000" d="M133.5926,-349.3689C141.7609,-335.7902 152.6952,-315.8348 159,-297 166.7234,-273.9273 165.2818,-267.1787 168,-243 168.8122,-235.7753 169.4119,-227.9486 169.8518,-220.646"/>
<polygon fill="#000000" stroke="#000000" points="173.3578,-220.6233 170.3883,-210.4531 166.3674,-220.2553 173.3578,-220.6233"/>
<text text-anchor="middle" x="169.5" y="-275.3" font-family="Times,serif" font-size="14.00" fill="#000000">5</text>
</g>
<!-- G&#45;&gt;F -->
<g id="edge10" class="edge">
<title>G&#45;&gt;F</title>
<path fill="none" stroke="#000000" d="M123,-347.9735C123,-336.1918 123,-320.5607 123,-307.1581"/>
<polygon fill="#000000" stroke="#000000" points="126.5001,-307.0033 123,-297.0034 119.5001,-307.0034 126.5001,-307.0033"/>
<text text-anchor="middle" x="130" y="-318.8" font-family="Times,serif" font-size="14.00" fill="#000000">11</text>
</g>
</g>
</svg>
